<svg width="53" height="53" viewBox="0 0 53 53" fill="none" xmlns="http://www.w3.org/2000/svg">
<path d="M48.5968 30.352C47.3484 29.103 46.9925 27.4152 47.8077 26.6007C48.6223 25.7861 48.2671 24.0977 47.0181 22.8494C45.7691 21.6004 45.991 19.3355 47.5111 17.8148L48.8953 16.4306C50.4154 14.9105 50.6373 12.645 49.3883 11.3966C48.1393 10.1477 45.9436 10.3003 44.5083 11.7357C43.073 13.171 41.0748 13.5213 40.0677 12.5141C39.0605 11.5069 38.6336 10.286 39.1185 9.80175C39.6034 9.31687 39.4351 8.35583 38.7451 7.66528C38.0552 6.97472 36.618 7.28323 35.551 8.35022C34.484 9.41659 33.3877 10.066 33.1141 9.79241C32.8405 9.5188 31.9343 9.97689 31.1004 10.8108C30.2665 11.6447 28.5208 11.2639 27.2214 9.96442C25.9219 8.66496 25.6365 6.82452 26.5863 5.87407C27.5367 4.92363 27.49 3.32252 26.4835 2.31535C25.4763 1.30819 23.409 1.72826 21.8889 3.24773L4.28416 20.8525C2.76407 22.3726 2.34462 24.4405 3.35178 25.447C4.35895 26.4542 5.75376 26.7072 6.45242 26.0086C7.15045 25.3105 8.78522 25.8023 10.0847 27.1017C11.3841 28.4012 12.2729 29.639 12.0591 29.8521C11.846 30.0659 11.8952 30.4641 12.1688 30.7377C12.4424 31.0114 11.7936 32.1083 10.7266 33.1746C9.66025 34.241 9.35175 35.6788 10.0417 36.3688C10.7316 37.0587 12.5396 36.38 14.0597 34.8599L15.0918 33.8284C16.6119 32.3083 18.6792 31.8889 19.6864 32.8954C20.6935 33.9026 20.2741 35.9705 18.754 37.49L14.2666 41.9773C12.7466 43.4974 12.5247 45.7629 13.773 47.0113C15.022 48.2602 16.2978 49.0281 16.6082 48.7177C16.9185 48.4073 18.1943 49.1752 19.4427 50.4241C20.6917 51.6731 22.9565 51.4512 24.4766 49.9312L27.8353 46.5719C29.3554 45.0518 31.6209 44.8299 32.8692 46.0789C34.1182 47.3279 36.3837 47.106 37.9031 45.5859L48.1031 35.3859C49.6232 33.8664 49.8451 31.6009 48.5968 30.352Z" fill="url(#paint0_linear)"/>
<path d="M25.6525 46.5775C36.6445 46.5775 45.5552 37.6668 45.5552 26.6748C45.5552 15.6829 36.6445 6.77217 25.6525 6.77217C14.6606 6.77217 5.74988 15.6829 5.74988 26.6748C5.74988 37.6668 14.6606 46.5775 25.6525 46.5775Z" fill="url(#paint1_linear)"/>
<path d="M40.3164 26.6748C40.3164 34.7733 33.7511 41.3385 25.6527 41.3385C17.5543 41.3385 10.989 34.7733 10.989 26.6748C10.989 18.5764 17.5543 12.0112 25.6527 12.0112C33.7517 12.0118 40.3164 18.577 40.3164 26.6748Z" fill="url(#paint2_linear)"/>
<g opacity="0.75">
<path opacity="0.75" d="M32.7184 18.0049H18.5876C17.7051 18.0049 16.9828 18.7272 16.9828 19.6097V33.7399C16.9828 34.623 17.7051 35.3448 18.5876 35.3448H32.7184C33.6009 35.3448 34.3233 34.623 34.3233 33.7399V19.6097C34.3233 18.7272 33.6009 18.0049 32.7184 18.0049ZM25.6546 29.7081C23.9774 29.7081 22.6206 28.3507 22.6206 26.6767C22.6206 24.9989 23.9781 23.6427 25.6546 23.6427C27.3293 23.6427 28.6885 24.9995 28.6885 26.6767C28.6885 28.3507 27.3293 29.7081 25.6546 29.7081ZM30.9229 21.3511C30.5826 21.3511 30.304 21.0756 30.304 20.7347C30.304 20.3913 30.5826 20.1152 30.9229 20.1152C31.2663 20.1152 31.5424 20.3913 31.5424 20.7347C31.5418 21.0756 31.2663 21.3511 30.9229 21.3511Z" fill="white"/>
</g>
<defs>
<linearGradient id="paint0_linear" x1="13.7563" y1="11.3801" x2="42.9329" y2="40.5567" gradientUnits="userSpaceOnUse">
<stop stop-color="#FF512F" stop-opacity="0.46"/>
<stop offset="1" stop-color="#DD2476" stop-opacity="0.63"/>
</linearGradient>
<linearGradient id="paint1_linear" x1="5.74987" y1="26.6751" x2="45.5558" y2="26.6751" gradientUnits="userSpaceOnUse">
<stop stop-color="#00CBEF"/>
<stop offset="0.0001" stop-color="#FF795F"/>
<stop offset="1" stop-color="#DD2476"/>
</linearGradient>
<linearGradient id="paint2_linear" x1="10.9894" y1="26.675" x2="40.3165" y2="26.675" gradientUnits="userSpaceOnUse">
<stop stop-color="#FF512F"/>
<stop offset="1" stop-color="#DD2476"/>
</linearGradient>
</defs>
</svg>
