<svg height="512pt" viewBox="0 -24 512 512" width="512pt" xmlns="http://www.w3.org/2000/svg"><path d="m487.800781 76.339844h7.121094c9.433594 0 17.078125 7.648437 17.078125 17.078125v353.417969c0 9.433593-7.648438 17.078124-17.078125 17.078124h-477.84375c-9.429687 0-17.078125-7.648437-17.078125-17.078124v-353.417969c0-9.433594 7.648438-17.078125 17.078125-17.078125h7.121094" fill="#89412b"/><path d="m487.800781 64.085938h7.121094c9.433594 0 17.078125 7.644531 17.078125 17.078124v353.417969c0 9.429688-7.648438 17.074219-17.078125 17.074219h-477.84375c-9.429687 0-17.078125-7.644531-17.078125-17.074219v-353.417969c0-9.433593 7.648438-17.078124 17.078125-17.078124h7.121094" fill="#aa6952"/><path d="m224.679688 371.59375h62.640624v80.066406h-62.640624zm0 0" fill="#89412b"/><path d="m481 402.574219c1.640625 3.769531 3.867188 7.585937 6.792969 11.378906h-463.601563c2.925782-3.792969 5.152344-7.609375 6.792969-11.378906 2.332031-5.363281 3.480469-10.648438 3.835937-15.675781.199219-2.726563.15625-5.371094-.074218-7.917969-.5-5.882813-1.953125-11.222657-3.617188-15.675781-3.101562-8.234376-6.9375-13.4375-6.9375-13.4375l231.800782-46.214844 231.800781 46.214844s-3.835938 5.203124-6.9375 13.4375c-1.664063 4.453124-3.113281 9.792968-3.617188 15.675781-.21875 2.546875-.269531 5.191406-.070312 7.917969.355469 5.027343 1.503906 10.3125 3.832031 15.675781zm0 0" fill="#b3b3b3"/><path d="m24.195312 0h167.71875c35.390626 0 64.082032 28.691406 64.082032 64.082031v349.867188c0-35.394531-28.691406-64.082031-64.082032-64.082031h-167.71875zm0 0" fill="#e6e6e6"/><path d="m487.800781 0v349.863281h-167.71875c-4.816406 0-9.507812.535157-14.019531 1.546875-12.070312 2.6875-22.851562 8.789063-31.296875 17.21875-11.597656 11.601563-18.765625 27.617188-18.765625 45.320313v-349.863281c0-30.574219 21.410156-56.152344 50.0625-62.539063 4.511719-1.011719 9.203125-1.546875 14.019531-1.546875zm0 0" fill="#e6e6e6"/><path d="m296.535156 4.476562v349.875c-8.234375 3.238282-15.621094 8.140626-21.765625 14.285157-11.597656 11.597656-18.765625 27.613281-18.765625 45.316406v-349.863281c0-27.074219 16.789063-50.230469 40.53125-59.613282zm0 0" fill="#ccc"/><path d="m62.324219 38.128906h145.699219v95.316406h-145.699219zm0 0" fill="#f45395"/><path d="m157.304688 171.203125h-87.144532c-4.328125 0-7.835937-3.507813-7.835937-7.835937 0-4.328126 3.507812-7.835938 7.835937-7.835938h87.144532c4.328124 0 7.839843 3.507812 7.839843 7.835938 0 4.328124-3.511719 7.835937-7.839843 7.835937zm0 0" fill="#3598ba"/><path d="m62.324219 193.289062h145.699219v95.316407h-145.699219zm0 0" fill="#61b4d8"/><path d="m77.300781 288.605469 40.851563-53.035157 36.457031 24.816407 53.410156-38.433594v66.652344zm0 0" fill="#ffe785"/><path d="m157.304688 326.367188h-87.144532c-4.328125 0-7.835937-3.511719-7.835937-7.839844s3.507812-7.835938 7.835937-7.835938h87.144532c4.328124 0 7.839843 3.507813 7.839843 7.835938s-3.511719 7.839844-7.839843 7.839844zm0 0" fill="#3598ba"/><path d="m306.0625 38.128906h145.699219v95.316406h-145.699219zm0 0" fill="#fff"/><path d="m306.0625 96.679688h145.699219v36.765624h-145.699219zm0 0" fill="#61b4d8"/><path d="m401.046875 171.203125h-87.148437c-4.328126 0-7.835938-3.507813-7.835938-7.835937 0-4.328126 3.507812-7.835938 7.835938-7.835938h87.148437c4.328125 0 7.835937 3.507812 7.835937 7.835938 0 4.328124-3.507812 7.835937-7.835937 7.835937zm0 0" fill="#3598ba"/><path d="m306.0625 193.289062h145.699219v95.316407h-145.699219zm0 0" fill="#4ccc9b"/><path d="m401.046875 326.367188h-87.148437c-4.328126 0-7.835938-3.511719-7.835938-7.839844s3.507812-7.835938 7.835938-7.835938h87.148437c4.328125 0 7.835937 3.507813 7.835937 7.835938s-3.507812 7.839844-7.835937 7.839844zm0 0" fill="#3598ba"/><g fill="#999"><path d="m480.855469 363.304688c-1.664063 4.453124-3.113281 9.792968-3.617188 15.675781h-112.125c-4.328125 0-7.839843-3.511719-7.839843-7.839844 0-4.335937 3.511718-7.835937 7.839843-7.835937zm0 0"/><path d="m481 402.574219h-137.675781c-4.324219 0-7.835938-3.5-7.835938-7.839844 0-4.324219 3.511719-7.835937 7.835938-7.835937h133.84375c.355469 5.027343 1.503906 10.3125 3.832031 15.675781zm0 0"/><path d="m154.730469 371.140625c0 4.328125-3.507813 7.839844-7.835938 7.839844h-112.148437c-.5-5.882813-1.953125-11.222657-3.617188-15.675781h115.765625c4.328125 0 7.835938 3.5 7.835938 7.835937zm0 0"/><path d="m176.507812 394.734375c0 4.339844-3.511718 7.839844-7.835937 7.839844h-137.6875c2.332031-5.363281 3.480469-10.648438 3.835937-15.675781h133.851563c4.324219 0 7.835937 3.511718 7.835937 7.835937zm0 0"/></g><path d="m409.039062 96.679688c0-16.640626-13.488281-30.128907-30.128906-30.128907-16.636718 0-30.125 13.488281-30.125 30.128907" fill="#ffe785"/><path d="m109.570312 95.035156h-8.273437c-5.894531 0-10.667969-4.777344-10.667969-10.671875 0-2.945312 1.191406-5.609375 3.125-7.542969 1.929688-1.933593 4.597656-3.125 7.542969-3.125h67.761719c5.882812 0 10.65625 4.777344 10.65625 10.667969 0 2.949219-1.191406 5.613281-3.121094 7.546875-1.933594 1.933594-4.589844 3.125-7.535156 3.125h-8.277344" fill="#e8b182"/><path d="m135.175781 52.9375c-14.195312 0-25.703125 11.503906-25.703125 25.699219v14.296875c0 14.195312 11.507813 25.703125 25.703125 25.703125 14.195313 0 25.699219-11.507813 25.699219-25.703125v-14.296875c.003906-14.195313-11.503906-25.699219-25.699219-25.699219zm0 0" fill="#ffd0a6"/></svg>